<?xml version="1.0" encoding="utf-8"?>
<!-- Generator: Adobe Illustrator 15.1.0, SVG Export Plug-In . SVG Version: 6.00 Build 0)  -->
<!DOCTYPE svg PUBLIC "-//W3C//DTD SVG 1.1//EN" "http://www.w3.org/Graphics/SVG/1.1/DTD/svg11.dtd">
<svg version="1.1" id="Layer_1" xmlns="http://www.w3.org/2000/svg" xmlns:xlink="http://www.w3.org/1999/xlink" x="0px" y="0px"
	 width="1224px" height="792px" viewBox="0 0 1224 792" enable-background="new 0 0 1224 792" xml:space="preserve">
<g>
	<polygon fill="#FBB040" points="297.556,215.796 611.992,34.255 926.428,215.796 926.428,578.875 611.992,760.416 297.556,578.875 
			"/>
	<polygon fill="#D34040" points="518.151,123.347 535.581,123.347 540.23,134.082 569.503,119.002 607.677,114.319 642.556,120.392 
		665.789,134.082 671.295,123.347 692.533,123.347 692.532,172.693 681.062,211.498 685.67,217.893 682.354,238.764 678.802,252.97 
		678.802,312.426 735.427,317.851 783.021,338.514 825.987,366.511 840.094,434.1 844.685,496.761 850.621,609.421 921.464,577.313 
		925.321,219.855 611.992,34.255 493.503,99.167 485.615,139.841 	"/>
	<polygon fill="#D34040" points="297.556,270.842 302.95,219.364 512.335,99.167 512.335,123.347 512.335,184.173 525.42,211.608 
		518.7,216.602 525.42,252.97 525.42,312.426 472.042,320.95 411.487,345.02 378.461,371.389 365.627,456.639 358.374,589.315 
		358.062,610.934 297.556,572.312 	"/>
	<polygon fill="#2B3174" points="459.188,510.964 472.042,511.967 473.298,451.971 727.865,451.971 727.865,511.967 
		749.382,510.964 749.38,589.748 751.133,621.663 751.133,629.211 736.594,632.368 727.865,641.296 678.802,645.359 
		674.195,655.691 678.802,660.596 661.404,666.328 662.56,671.38 557.687,671.38 545.971,661.547 540.489,660.375 545.962,651.379 
		534.718,641.296 491.696,643.294 489.524,636.428 460.116,626.657 446.935,625.23 445.32,603.233 456.597,597.835 459.146,584.467 
		457.198,557.338 	"/>
	<g>
		<path fill="#FBB040" d="M673.719,520.662h-4.849c-1.341,0-2.427-1.087-2.427-2.425v-7.273H539.566v7.273
			c0,1.338-1.083,2.425-2.424,2.425h-4.848v90.914h40.594l-24.612-42.629c-0.016-0.027-0.021-0.058-0.036-0.085
			c-0.069-0.132-0.125-0.269-0.169-0.413c-0.014-0.048-0.033-0.094-0.044-0.143c-0.044-0.184-0.075-0.374-0.075-0.571
			c0-0.196,0.031-0.386,0.075-0.569c0.012-0.049,0.03-0.096,0.044-0.145c0.044-0.143,0.101-0.281,0.169-0.411
			c0.016-0.029,0.021-0.06,0.036-0.088l26.342-45.621c0.431-0.748,1.232-1.213,2.097-1.213h5.954h40.405h6.322
			c0.866,0,1.667,0.465,2.1,1.213l26.341,45.621c0.016,0.028,0.021,0.059,0.036,0.088c0.067,0.13,0.126,0.267,0.17,0.411
			c0.014,0.049,0.032,0.096,0.044,0.145c0.044,0.184,0.075,0.373,0.075,0.569c0,0.197-0.031,0.386-0.075,0.571
			c-0.012,0.049-0.03,0.095-0.044,0.145c-0.044,0.143-0.103,0.279-0.17,0.41c-0.016,0.028-0.021,0.059-0.036,0.086l-24.611,42.629
			h40.493V520.662z"/>
		<polygon fill="#C8802A" points="585.092,567.735 585.092,586.892 585.092,610.934 620.651,610.934 620.651,567.735 
			620.651,524.537 585.092,524.537 585.092,546.939 		"/>
		<polygon fill="#C8802A" points="580.245,524.537 578.116,524.537 566.582,544.516 580.245,544.516 		"/>
		<polygon fill="#C8802A" points="580.245,549.364 563.781,549.364 554.574,565.311 580.245,565.311 		"/>
		<polygon fill="#C8802A" points="580.245,610.934 580.245,589.315 565.633,589.315 578.116,610.934 		"/>
		<polygon fill="#C8802A" points="580.245,570.159 554.574,570.159 562.834,584.467 580.245,584.467 		"/>
		<path fill="#C8802A" d="M696.347,611.576v-93.339c0-1.34,1.085-2.424,2.424-2.424h4.85v-4.85h-32.325v4.85h4.849
			c1.339,0,2.422,1.084,2.422,2.424v93.339H696.347z"/>
		<polygon fill="#C8802A" points="625.5,610.934 627.996,610.934 640.478,589.315 625.5,589.315 		"/>
		<polygon fill="#C8802A" points="625.5,524.537 625.5,544.516 639.533,544.516 627.996,524.537 		"/>
		<polygon fill="#C8802A" points="625.5,584.467 643.278,584.467 651.538,570.159 625.5,570.159 		"/>
		<polygon fill="#C8802A" points="625.5,565.311 651.538,565.311 642.332,549.364 625.5,549.364 		"/>
		<polygon fill="#FBB040" points="455.323,601.047 451.782,602.253 451.782,627.52 468.449,630.484 468.449,510.964 
			459.188,510.964 		"/>
		<path fill="#FBB040" d="M733.708,632.952l15.672-3.172V518.237c0-1.063,0.689-1.955,1.641-2.284l0.112-4.989h-18.42v122.694
			L733.708,632.952z"/>
		<path fill="#FBB040" d="M482.333,632.952l6.322,4.477v-8.477c0-1.339,1.083-2.424,2.423-2.424h5.658v-12.526
			c0-1.339,1.084-2.426,2.423-2.426h4.85v-90.914h-4.85c-1.339,0-2.423-1.087-2.423-2.425v-7.273h-5.658
			c-1.34,0-2.423-1.087-2.423-2.424v-26.669c0-1.338,1.083-2.425,2.423-2.425h223.047c1.34,0,2.424,1.087,2.424,2.425v26.669
			c0,1.337-1.084,2.424-2.424,2.424h-5.658v7.273c0,1.338-1.084,2.425-2.424,2.425h-4.849v90.914h4.849
			c1.34,0,2.424,1.087,2.424,2.426v12.526h5.658c1.34,0,2.424,1.085,2.424,2.424v12.344l6.442-0.758l4.873-3.447V508.54v-56.569
			H473.298v56.569v122.807L482.333,632.952z"/>
		<polygon fill="#FBB040" points="673.643,661.278 542.399,661.278 554.802,663.713 554.802,671.38 661.239,671.38 661.239,663.713 
					"/>
		<polygon fill="#FBB040" points="441.734,625.732 446.935,626.657 446.935,609.421 		"/>
		<polygon fill="#C8802A" points="711.701,506.115 711.701,484.294 493.503,484.294 493.503,506.115 499.159,506.115 
			537.142,506.115 668.87,506.115 706.044,506.115 		"/>
		<path fill="#C8802A" d="M508.858,518.237v93.339h18.586v-93.339c0-1.34,1.085-2.424,2.425-2.424h4.849v-4.85h-33.132v4.85h4.849
			C507.771,515.813,508.858,516.897,508.858,518.237z"/>
		<polygon fill="#FBB040" points="754.23,621.663 754.23,628.798 759.416,627.749 		"/>
		<polygon fill="#C8802A" points="501.585,626.528 703.62,626.528 703.62,616.426 698.771,616.426 506.434,616.426 501.585,616.426 
					"/>
		<polygon fill="#C8802A" points="493.503,631.376 493.503,640.592 501.059,641.478 711.701,641.478 711.701,631.376 
			706.044,631.376 499.159,631.376 		"/>
		<polygon fill="#C8802A" points="672.297,656.43 670.432,649.697 673.643,646.326 542.399,646.326 545.609,649.697 543.744,656.43 
					"/>
	</g>
	<rect x="464.122" y="446.995" fill="#FBB040" width="15.84" height="64.972"/>
	<rect x="479.962" y="422.525" fill="#FBB040" width="255.465" height="56.955"/>
	<rect x="723.098" y="463.025" fill="#FBB040" width="26.284" height="44.281"/>
	<g id="figure_2_">
		<line fill="none" stroke="#293163" stroke-width="7" x1="471.939" y1="318.884" x2="472.042" y2="114.417"/>
		<line fill="none" stroke="#293163" stroke-width="5" x1="503.036" y1="315.784" x2="503.036" y2="114.319"/>
		<line fill="none" stroke="#293163" stroke-width="7" x1="742.729" y1="320.95" x2="742.729" y2="109.91"/>
		<line fill="none" stroke="#293163" stroke-width="7" x1="742.729" y1="229" x2="878.072" y2="229"/>
		<line fill="none" stroke="#293163" stroke-width="7" x1="323.785" y1="229" x2="472.042" y2="229"/>
		<line fill="none" stroke="#293163" stroke-width="7" x1="794.387" y1="229" x2="794.387" y2="131.367"/>
		<line fill="none" stroke="#293163" stroke-width="7" x1="845.011" y1="229" x2="845.011" y2="167.526"/>
		<line fill="none" stroke="#293163" stroke-width="7" x1="422.451" y1="229" x2="422.451" y2="139.347"/>
		<line fill="none" stroke="#293163" stroke-width="7" x1="366.659" y1="229" x2="366.659" y2="167.01"/>
		<line fill="none" stroke="#293163" stroke-width="7" x1="327.399" y1="592.67" x2="327.399" y2="229"/>
		<line fill="none" stroke="#293163" stroke-width="7" x1="878.072" y1="597.835" x2="878.072" y2="224.351"/>
		<line fill="none" stroke="#293163" stroke-width="5" x1="705.469" y1="315.784" x2="705.469" y2="114.319"/>
		<line fill="none" stroke="#293163" stroke-width="5" x1="707.084" y1="116.386" x2="608.547" y2="67.482"/>
		<line fill="none" stroke="#293163" stroke-width="5" x1="501.357" y1="116.386" x2="610.885" y2="67.482"/>
		<polygon fill="none" stroke="#293163" stroke-width="5" points="666.192,135.673 643.215,120.52 611.777,114.415 596.365,114.319 
			560.794,120.52 537.817,135.673 530.931,156.336 534.375,196.285 541.949,257.585 541.949,279.625 582.331,315.784 
			602.004,318.884 620.814,315.784 662.271,279.753 662.059,257.585 669.632,196.285 673.076,156.336 		"/>
		<path fill="none" stroke="#293163" d="M525.42,313.374"/>
		<polyline display="none" fill="none" stroke="#293163" stroke-width="4" points="532.481,161.069 546.688,139.891 
			571.999,127.234 602.908,123.876 		"/>
		<polyline display="none" fill="none" stroke="#293163" stroke-width="4" points="673.076,161.069 658.87,139.891 633.558,127.234 
			602.473,123.924 		"/>
		<path fill="#9B3231" stroke="#293163" stroke-width="2" d="M534.547,197.677c0,0,18.081-4.58,11.881-13.104
			c-6.198-8.524-8.611-9.557-8.611-9.557h-3.27c0,0,1.811-2.84,6.589-1.292c4.775,1.55,4.518,6.199,13.816,7.749
			c9.297,1.55,16.186-3.616,12.743-6.974c-3.446-3.358-6.803-12.14-19.717-6.974c-12.914,5.167,0.129-4.003,9.686-2.841
			c9.557,1.163,10.332,5.94,15.497,7.232c5.165,1.292,14.205,0,19.759-3.487c5.552-3.487-1.42-14.077-9.169-15.109
			c-7.748-1.034-10.031,0.774-16.056,4.132c-6.028,3.357-8.094,3.616-6.416,1.55c1.679-2.067,5.424-5.812,14.853-7.232
			c9.427-1.421,8.394-1.809,11.88-4.262c3.488-2.454,6.973-12.011,3.746-15.498c-3.228-3.487-10.72-2.454-15.886,1.163
			c-5.165,3.616-4.52,10.719-13.559,18.209c-9.042,7.49-12.786,11.365-18.598,13.56c-5.811,2.196-1.807-1.42,2.067-3.875
			c3.875-2.453,12.785-10.202,16.531-16.271c3.744-6.07,2.712-12.527-0.904-10.719c-3.616,1.807-10.719,6.069-18.081,19.113
			c-7.36,13.043-7.489,10.977-9.815,11.881C531.19,165.978,534.547,197.677,534.547,197.677z"/>
		<path fill="#9B3231" stroke="#293163" stroke-width="2" d="M668.586,197.677c0,0-18.08-4.58-11.881-13.104
			c6.199-8.524,8.61-9.557,8.61-9.557h3.271c0,0-1.811-2.84-6.587-1.292c-4.776,1.55-4.52,6.199-13.818,7.749
			c-9.298,1.55-16.185-3.616-12.74-6.974c3.442-3.358,6.8-12.14,19.715-6.974c12.914,5.167-0.13-4.003-9.687-2.841
			c-9.556,1.163-10.331,5.94-15.496,7.232c-5.165,1.292-14.207,0-19.759-3.487c-5.554-3.487,1.42-14.077,9.169-15.109
			c7.749-1.034,10.029,0.774,16.058,4.132c6.026,3.357,8.092,3.616,6.414,1.55c-1.68-2.067-5.425-5.812-14.853-7.232
			c-9.428-1.421-8.395-1.809-11.883-4.262c-3.485-2.454-6.971-12.011-3.744-15.498c3.229-3.487,10.72-2.454,15.886,1.163
			c5.165,3.616,4.518,10.719,13.56,18.209c9.04,7.49,12.785,11.365,18.598,13.56c5.811,2.196,1.808-1.42-2.067-3.875
			c-3.874-2.453-12.785-10.202-16.53-16.271c-3.745-6.07-2.713-12.527,0.904-10.719c3.616,1.807,10.72,6.069,18.079,19.113
			c7.362,13.043,7.491,10.977,9.815,11.881C671.944,165.978,668.586,197.677,668.586,197.677z"/>
		<path fill="none" stroke="#293163" stroke-width="3" d="M530.931,156.336c0,0,8.094-32.203,71.073-32.977
			c62.979-0.775,71.072,32.977,71.072,32.977"/>
		<path fill="none" stroke="#293163" stroke-width="5" d="M525.42,250.008c0,0-13.344-36.677-3.012-38.399
			c10.331-1.722,14.805,4.058,15.409,3.492"/>
		<path fill="none" stroke="#293163" stroke-width="5" d="M678.802,250.008c0,0,13.344-36.677,3.013-38.399
			s-14.805,4.058-15.411,3.492"/>
		<path fill="none" stroke="#293163" stroke-width="5" stroke-miterlimit="10" d="M833.068,579.033c0,0-14.232-14.26-43.16,8.472
			c-28.929,22.729-36.505,12.74-36.505,12.74s-5.166-9.986-3.787-27.894c1.378-17.909,1.722-79.897,1.722-79.897
			c14.463-9.643,9.644-51.658,9.644-51.658"/>
		<path fill="none" stroke="#293163" stroke-width="5" stroke-miterlimit="10" d="M375.66,579.834c0,0,14.232-14.259,43.16,8.471
			c28.929,22.73,36.503,12.742,36.503,12.742s5.167-9.986,3.788-27.895c-1.378-17.909-1.721-79.897-1.721-79.897
			c-14.464-9.643-9.644-51.658-9.644-51.658"/>
		<path fill="none" stroke="#293163" stroke-width="5" d="M811.95,632.272c0,0-16.057-9.642-45.912-5.509
			c-29.854,4.132-42.94,9.641-38.808,16.53h28.929l-77.357,2.065c0,0-9.083,2.413-4.606,10.332
			c4.478,7.921,11.021,5.855,11.021,5.855l55.445,4.478l-67.706-4.478c0,0-13.568,1.033-11.503,6.888
			c2.068,5.854,3.1,7.92,8.954,9.299c5.855,1.377,59.234,6.887,59.234,6.887s-62.333-7.577-63.022-5.51
			c-0.688,2.065-5.166,8.267,1.034,10.675c6.198,2.411,22.729,6.889,32.372,7.922c9.642,1.033-16.187-5.165-16.187,3.101
			c0,8.265,6.887,7.919,6.887,7.919"/>
		<path fill="none" stroke="#293163" stroke-width="5" d="M406.977,632.272c0,0,16.057-9.642,45.912-5.509
			c29.854,4.132,42.94,9.641,38.808,16.53h-28.928l77.357,2.065c0,0,9.081,2.413,4.606,10.332
			c-4.478,7.921-11.021,5.855-11.021,5.855l-55.446,4.478l67.707-4.478c0,0,13.568,1.033,11.502,6.888
			c-2.066,5.854-3.098,7.92-8.954,9.299c-5.854,1.377-59.234,6.887-59.234,6.887s62.333-7.577,63.021-5.51
			c0.69,2.065,5.167,8.267-1.032,10.675c-6.2,2.411-22.73,6.889-32.372,7.922c-9.643,1.033,16.186-5.165,16.186,3.101
			c0,8.265-6.887,7.919-6.887,7.919"/>
		<line fill="none" stroke="#293163" stroke-width="4" x1="759.416" y1="627.749" x2="753.403" y2="600.245"/>
		<path fill="none" stroke="#293163" stroke-width="4" d="M525.42,324.05c0,0-64.743-2.066-76.625,10.072
			c-11.881,12.141,14.981,5.425,23.247,4.392"/>
		<path fill="none" stroke="#293163" stroke-width="4" d="M468.093,354.145c0,0-64.741-2.066-76.622,10.073
			c-11.883,12.141,14.979,5.424,23.245,4.392"/>
		<path fill="none" stroke="#293163" stroke-width="4" d="M735.427,354.145c0,0,64.743-2.066,76.625,10.073
			c11.88,12.141-14.981,5.424-23.247,4.392"/>
		<path fill="none" stroke="#293163" stroke-width="4" d="M678.802,325.973c0,0,64.743-2.066,76.624,10.073
			c11.881,12.14-14.981,5.425-23.246,4.391"/>
		<line fill="none" stroke="#293163" stroke-width="3" x1="629.752" y1="308.018" x2="615.134" y2="361.347"/>
		<line fill="none" stroke="#293163" stroke-width="3" x1="550.215" y1="360.21" x2="592.405" y2="381.906"/>
		<line fill="none" stroke="#293163" stroke-width="3" x1="650.847" y1="360.541" x2="608.658" y2="382.237"/>
		<polyline fill="none" stroke="#293163" stroke-width="2" stroke-miterlimit="10" points="585.688,242.775 579.146,250.137 
			582.418,255.517 592.405,251.729 600.153,255.517 606.697,252.418 617.717,255.517 622.443,250.137 618.406,242.775 		"/>
		<polyline fill="none" stroke="#293163" stroke-width="3" stroke-miterlimit="10" points="608.658,199.382 608.658,244.497 
			606.697,252.418 		"/>
		<line fill="none" stroke="#293163" stroke-miterlimit="10" x1="594.92" y1="200.76" x2="594.92" y2="238.987"/>
		<path fill="none" stroke="#293163" stroke-miterlimit="10" d="M608.658,252.97c0,0-6.782,6.335-4.028,10.812"/>
		<path fill="none" stroke="#293163" stroke-miterlimit="10" d="M592.405,251.729c0,0,5.681,6.199,4.648,10.332"/>
		<path fill="none" stroke="#293163" stroke-miterlimit="10" d="M580.114,251.729"/>
		<polygon fill="none" stroke="#293163" stroke-width="2" stroke-miterlimit="10" points="579.146,276.574 594.792,270.842 
			600.795,273.339 608.213,270.842 619.094,275.836 622.443,277.213 620.814,278.936 608.213,276.87 600.795,280.657 
			592.405,277.041 580.868,277.558 		"/>
		<path fill="none" stroke="#293163" d="M589.58,285.042c3.321,0.984-2.857,6.98-2.857,6.98s21.007-2.756,28.411,1.722
			c7.404,4.477,0,14.274,0,14.274"/>
		<g>
			<g>
				<path fill="#293163" d="M547.116,217.93c3.675-6.38,9.085-11.911,16.628-12.824c5.555-0.672,10.838-0.571,16.37,0.22
					c3.749,0.536,8.339,1.27,9.018-3.444c0.236-1.637-0.234-3.374,0-5c-0.588,4.086-3.886,3.973-7.386,3.659
					c-5.598-0.501-10.705-1.164-16.347-0.618c-8.408,0.812-14.138,5.812-18.283,13.007
					C546.386,214.197,547.827,216.696,547.116,217.93L547.116,217.93z"/>
			</g>
		</g>
		<path fill="#C1823D" stroke="#293163" stroke-miterlimit="10" d="M552.283,216.602c0,0,3.79-6.876,15.841-7.565
			c12.054-0.689,9.299-2.078,14.81,4.293l3.789,3.271h-4.133c0,0-6.887,4.132-14.465,3.272
			C560.547,219.013,552.283,216.602,552.283,216.602z"/>
		<path fill="none" stroke="#293163" stroke-miterlimit="10" d="M552.283,215.43c0,0,8.266-9.127,20.147-8.024
			c11.882,1.103,8.092,0.069,9.298-0.792c1.206-0.861-0.467,5.271,2.263,7.629"/>
		<path stroke="#293163" stroke-miterlimit="10" d="M552.283,217.893c0,0,6.802,4.649,14.551,4.908"/>
		<path stroke="#293163" stroke-miterlimit="10" d="M579.146,220.347c0,0,2.374-1.851,4.845-0.473"/>
		<g>
			<g>
				<path fill="#293163" d="M654.006,213.447c-3.674-6.38-9.083-11.91-16.626-12.824c-5.556-0.673-10.838-0.571-16.37,0.22
					c-3.748,0.536-8.34,1.27-9.018-3.444c0.234,1.627-0.235,3.363,0,5c0.587,4.086,3.887,3.973,7.387,3.659
					c5.598-0.501,10.704-1.164,16.346-0.618c8.408,0.813,14.138,5.811,18.281,13.007
					C653.295,217.212,654.735,214.714,654.006,213.447L654.006,213.447z"/>
			</g>
		</g>
		<path fill="#C1823D" stroke="#293163" stroke-miterlimit="10" d="M648.84,217.118c0,0-3.786-6.875-15.842-7.564
			c-12.052-0.689-9.299-2.078-14.809,4.293l-3.787,3.271h4.133c0,0,6.888,4.132,14.463,3.272
			C640.575,219.529,648.84,217.118,648.84,217.118z"/>
		<path fill="none" stroke="#293163" stroke-miterlimit="10" d="M648.84,215.947c0,0-8.265-9.127-20.145-8.024
			c-11.883,1.103-8.096,0.069-9.299-0.792c-1.207-0.861,0.465,5.271-2.264,7.63"/>
		<path stroke="#293163" stroke-miterlimit="10" d="M648.84,218.41c0,0-6.8,4.649-14.549,4.907"/>
		<path stroke="#293163" stroke-miterlimit="10" d="M621.979,220.864c0,0-2.374-1.852-4.846-0.474"/>
		<polyline fill="none" stroke="#293163" stroke-width="3" stroke-miterlimit="10" points="540.23,230.647 559.557,262.06 
			568.138,267.227 580.868,252.97 		"/>
		<polyline fill="none" stroke="#293163" stroke-miterlimit="10" points="563.807,264.619 559.557,262.06 566.833,299.77 		"/>
		<polyline fill="none" stroke="#293163" stroke-width="3" stroke-miterlimit="10" points="663.348,230.647 642.556,264.078 
			633.978,269.244 619.555,253.424 		"/>
		<polyline fill="none" stroke="#293163" stroke-width="2" stroke-miterlimit="10" points="638.306,266.636 642.556,264.078 
			635.28,301.788 		"/>
		<path fill="none" stroke="#293163" stroke-width="2" stroke-miterlimit="10" d="M756.411,603.233c0,0,73.723-21.344,81.922-10.326
			c8.198,11.018,11.381,18.351,11.381,18.351s-48.813-13.596-90.298,1.729"/>
		<path fill="none" stroke="#293163" stroke-width="2" stroke-miterlimit="10" d="M371.711,588.088c0,0,43.272-0.638,73.609,15.146
			l0.478,9.754c0,0-41.006-31.737-84.868-9.754v12.87c0,0,66.935-12.009,83.875,0"/>
		
			<line fill="none" stroke="#293163" stroke-width="2" stroke-miterlimit="10" x1="388.483" y1="487.632" x2="454.716" y2="490.874"/>
		<polyline fill="none" stroke="#293163" stroke-width="2" stroke-miterlimit="10" points="727.865,490.874 749.382,490.874 
			751.133,502.648 821.249,495.205 		"/>
		
			<line fill="none" stroke="#293163" stroke-width="2" stroke-miterlimit="10" x1="360.93" y1="484.294" x2="388.483" y2="484.294"/>
		
			<line fill="none" stroke="#293163" stroke-width="2" stroke-miterlimit="10" x1="821.249" y1="489.252" x2="847.851" y2="489.252"/>
		
			<line fill="none" stroke="#293163" stroke-width="2" stroke-miterlimit="10" x1="329.983" y1="479.367" x2="363.084" y2="479.367"/>
		
			<line fill="none" stroke="#293163" stroke-width="2" stroke-miterlimit="10" x1="844.685" y1="479.367" x2="874.455" y2="479.367"/>
		<line fill="none" stroke="#293163" stroke-miterlimit="10" x1="367.694" y1="218.41" x2="510.613" y2="218.41"/>
		<line fill="none" stroke="#293163" stroke-miterlimit="10" x1="695.294" y1="218.41" x2="845.011" y2="218.41"/>
		<polyline fill="none" stroke="#293163" stroke-width="2" stroke-miterlimit="10" points="540.04,131.883 537.629,122.718 
			532.695,122.718 530.931,153.58 		"/>
		<polyline fill="none" stroke="#293163" stroke-width="5" stroke-miterlimit="10" points="522.408,211.608 512.335,172.693 
			512.335,123.347 532.695,123.347 		"/>
		<polyline fill="none" stroke="#293163" stroke-width="2" stroke-miterlimit="10" points="665.113,132.787 667.877,122.713 
			673.001,122.713 675.088,153.58 		"/>
		<polyline fill="none" stroke="#293163" stroke-width="5" stroke-miterlimit="10" points="682.46,211.608 692.533,172.693 
			692.533,123.347 672.172,123.347 		"/>
		<path fill="none" stroke="#293163" stroke-miterlimit="10" d="M512.335,167.01"/>
		<path fill="none" stroke="#293163" stroke-miterlimit="10" d="M512.335,172.693c0,0,7.651,0.145,15.815-12.915"/>
		<path fill="none" stroke="#293163" stroke-miterlimit="10" d="M692.533,172.693c0,0-15.498,1.021-20.361-12.915"/>
	</g>
	<g id="backgroundlines_2_">
		<polygon fill="none" stroke="#293163" stroke-width="5" points="550.215,287.89 550.215,360.21 531.619,376.741 525.42,360.899 
			525.42,250.008 541.949,257.585 541.949,279.625 		"/>
		<polygon fill="none" stroke="#293163" stroke-width="5" points="654.006,288.019 654.006,360.34 672.603,376.87 678.802,361.029 
			678.802,250.137 662.271,257.713 662.271,279.753 		"/>
		<polyline fill="none" stroke="#293163" stroke-width="5" points="525.42,331.972 448.277,360.899 413.149,376.741 
			386.288,433.221 391.797,463.525 382.844,508.985 379.399,557.2 374.578,584.062 358.05,607.279 		"/>
		<polyline fill="none" stroke="#293163" stroke-width="5" points="853.275,612.987 834.678,587.995 829.855,561.132 
			826.412,512.919 817.458,467.459 822.969,437.153 796.105,380.674 760.978,364.833 678.802,334.122 		"/>
		<path fill="none" stroke="#293163" stroke-width="3" d="M525.42,315.784"/>
		<line fill="none" stroke="#293163" stroke-width="5" x1="391.456" y1="270.842" x2="391.456" y2="357.583"/>
		<line fill="none" stroke="#293163" stroke-width="5" x1="821.249" y1="270.842" x2="821.249" y2="360.541"/>
		<path fill="none" stroke="#293163" stroke-width="5" d="M329.983,344.712c0,0,57.856-17.563,61.473-53.724
			c0,0,14.424,37.141,44.902,41.618"/>
		<path fill="none" stroke="#293163" stroke-width="5" d="M329.983,388.571c0,0,57.856-18.288,61.473-54.449"/>
		<path fill="none" stroke="#293163" stroke-width="5" d="M329.983,439.471c-10.05,2.932,21.696-1.938,37.71-11.589"/>
		<path fill="none" stroke="#293163" stroke-width="5" d="M327.399,522.416c0,0,21.479-0.667,32.028-9.299"/>
		<path fill="none" stroke="#293163" stroke-width="5" d="M876.006,334.122c0,0-51.142-15.256-54.757-51.417
			c0,0-17.5,36.568-55.211,47.417"/>
		<path fill="none" stroke="#293163" stroke-width="5" d="M876.006,376.87c0,0-51.142-14.87-54.757-51.03"/>
		<path fill="none" stroke="#293163" stroke-width="5" d="M876.006,430.913c0,0-23.113-5.115-39.386-23.01"/>
		<path fill="none" stroke="#293163" stroke-width="5" d="M876.006,511.967c0,0-19.554-7.311-30.145-16.762"/>
		<path fill="none" stroke="#293163" stroke-width="6" d="M525.42,312.688c0,0-37.193-3.574-79.896,15.713
			c-42.704,19.286-65.434,33.319-68.878,47.654c-3.443,14.334-13.256,78.045-15.927,140.895
			c-2.669,62.852-2.669,96.675-2.669,96.675"/>
		<path fill="none" stroke="#293163" stroke-width="6" d="M678.802,312.426c0,0,40.742-3.312,83.448,15.975
			c42.703,19.286,65.433,33.319,68.876,47.654c3.444,14.334,13.257,78.045,15.927,140.895c2.669,62.852,2.67,96.675,2.67,96.675"/>
	</g>
	<polygon fill="none" stroke="#272C65" stroke-width="20" stroke-miterlimit="10" points="296.449,215.796 610.886,34.255 
		925.321,215.796 925.321,578.875 610.886,760.416 296.449,578.875 	"/>
	
		<text transform="matrix(1 0 0 1 482.332 462.918)" fill="#FFFFFF" font-family="'GillSansMT'" font-size="86.7849" letter-spacing="9">C L E</text>
</g>
</svg>
